<?xml version="1.0" encoding="UTF-8"?>
<!--Generator: Apple Native CoreSVG 149-->
<!DOCTYPE svg
PUBLIC "-//W3C//DTD SVG 1.1//EN"
       "http://www.w3.org/Graphics/SVG/1.1/DTD/svg11.dtd">
<svg version="1.1" xmlns="http://www.w3.org/2000/svg" xmlns:xlink="http://www.w3.org/1999/xlink" width="3300" height="2200">
 <!--glyph: "uni100493.medium", point size: 100.000000, font version: "Version 16.0d18e1", template writer version: "8"-->
 <g id="Notes">
  <rect height="2200" id="artboard" style="fill:white;opacity:1" width="3300" x="0" y="0"/>
  <line id="" style="fill:none;stroke:black;opacity:1;stroke-width:0.5;" x1="263" x2="3036" y1="292" y2="292"/>
  <text style="stroke:none;fill:black;font-family:-apple-system,&quot;SF Pro Display&quot;,&quot;SF Pro Text&quot;,Helvetica,sans-serif;font-weight:bold;" transform="matrix(1 0 0 1 263 322)">Weight/Scale Variations</text>
  <text style="stroke:none;fill:black;font-family:-apple-system,&quot;SF Pro Display&quot;,&quot;SF Pro Text&quot;,Helvetica,sans-serif;text-anchor:middle;" transform="matrix(1 0 0 1 559.711 322)">Ultralight</text>
  <text style="stroke:none;fill:black;font-family:-apple-system,&quot;SF Pro Display&quot;,&quot;SF Pro Text&quot;,Helvetica,sans-serif;text-anchor:middle;" transform="matrix(1 0 0 1 856.422 322)">Thin</text>
  <text style="stroke:none;fill:black;font-family:-apple-system,&quot;SF Pro Display&quot;,&quot;SF Pro Text&quot;,Helvetica,sans-serif;text-anchor:middle;" transform="matrix(1 0 0 1 1153.13 322)">Light</text>
  <text style="stroke:none;fill:black;font-family:-apple-system,&quot;SF Pro Display&quot;,&quot;SF Pro Text&quot;,Helvetica,sans-serif;text-anchor:middle;" transform="matrix(1 0 0 1 1449.84 322)">Regular</text>
  <text style="stroke:none;fill:black;font-family:-apple-system,&quot;SF Pro Display&quot;,&quot;SF Pro Text&quot;,Helvetica,sans-serif;text-anchor:middle;" transform="matrix(1 0 0 1 1746.56 322)">Medium</text>
  <text style="stroke:none;fill:black;font-family:-apple-system,&quot;SF Pro Display&quot;,&quot;SF Pro Text&quot;,Helvetica,sans-serif;text-anchor:middle;" transform="matrix(1 0 0 1 2043.27 322)">Semibold</text>
  <text style="stroke:none;fill:black;font-family:-apple-system,&quot;SF Pro Display&quot;,&quot;SF Pro Text&quot;,Helvetica,sans-serif;text-anchor:middle;" transform="matrix(1 0 0 1 2339.98 322)">Bold</text>
  <text style="stroke:none;fill:black;font-family:-apple-system,&quot;SF Pro Display&quot;,&quot;SF Pro Text&quot;,Helvetica,sans-serif;text-anchor:middle;" transform="matrix(1 0 0 1 2636.69 322)">Heavy</text>
  <text style="stroke:none;fill:black;font-family:-apple-system,&quot;SF Pro Display&quot;,&quot;SF Pro Text&quot;,Helvetica,sans-serif;text-anchor:middle;" transform="matrix(1 0 0 1 2933.4 322)">Black</text>
  <line id="" style="fill:none;stroke:black;opacity:1;stroke-width:0.5;" x1="263" x2="3036" y1="1903" y2="1903"/>
  <g id="" transform="matrix(1 0 0 1 263 1933)">
   <path d="M9.24805 0.830078C13.5547 0.830078 17.1387-2.74414 17.1387-7.05078C17.1387-11.3574 13.5449-14.9316 9.23828-14.9316C4.94141-14.9316 1.36719-11.3574 1.36719-7.05078C1.36719-2.74414 4.95117 0.830078 9.24805 0.830078ZM9.24805-0.654297C5.70312-0.654297 2.87109-3.49609 2.87109-7.05078C2.87109-10.6055 5.69336-13.4473 9.23828-13.4473C12.793-13.4473 15.6348-10.6055 15.6445-7.05078C15.6543-3.49609 12.8027-0.654297 9.24805-0.654297ZM6.39648-6.31836L8.50586-6.31836L8.50586-4.19922C8.50586-3.75977 8.79883-3.45703 9.22852-3.45703C9.67773-3.45703 9.9707-3.75977 9.9707-4.19922L9.9707-6.31836L12.0996-6.31836C12.5391-6.31836 12.8418-6.61133 12.8418-7.04102C12.8418-7.48047 12.5391-7.7832 12.0996-7.7832L9.9707-7.7832L9.9707-9.89258C9.9707-10.3418 9.67773-10.6445 9.22852-10.6445C8.79883-10.6445 8.50586-10.3418 8.50586-9.89258L8.50586-7.7832L6.39648-7.7832C5.94727-7.7832 5.64453-7.48047 5.64453-7.04102C5.64453-6.61133 5.94727-6.31836 6.39648-6.31836Z"/>
  </g>
  <g id="" transform="matrix(1 0 0 1 281.506 1933)">
   <path d="M11.709 2.91016C17.1582 2.91016 21.6699-1.61133 21.6699-7.05078C21.6699-12.5 17.1484-17.0117 11.6992-17.0117C6.25977-17.0117 1.74805-12.5 1.74805-7.05078C1.74805-1.61133 6.26953 2.91016 11.709 2.91016ZM11.709 1.25C7.09961 1.25 3.41797-2.44141 3.41797-7.05078C3.41797-11.6602 7.08984-15.3516 11.6992-15.3516C16.3086-15.3516 20-11.6602 20.0098-7.05078C20.0195-2.44141 16.3184 1.25 11.709 1.25ZM7.98828-6.23047L10.8789-6.23047L10.8789-3.32031C10.8789-2.83203 11.2109-2.5 11.6895-2.5C12.1777-2.5 12.5195-2.83203 12.5195-3.32031L12.5195-6.23047L15.4297-6.23047C15.918-6.23047 16.25-6.5625 16.25-7.04102C16.25-7.5293 15.918-7.87109 15.4297-7.87109L12.5195-7.87109L12.5195-10.7617C12.5195-11.2695 12.1777-11.6016 11.6895-11.6016C11.2109-11.6016 10.8789-11.2598 10.8789-10.7617L10.8789-7.87109L7.98828-7.87109C7.48047-7.87109 7.14844-7.5293 7.14844-7.04102C7.14844-6.5625 7.49023-6.23047 7.98828-6.23047Z"/>
  </g>
  <g id="" transform="matrix(1 0 0 1 304.924 1933)">
   <path d="M14.9707 5.66406C21.9336 5.66406 27.6953-0.0976562 27.6953-7.05078C27.6953-14.0137 21.9238-19.7754 14.9609-19.7754C8.00781-19.7754 2.25586-14.0137 2.25586-7.05078C2.25586-0.0976562 8.01758 5.66406 14.9707 5.66406ZM14.9707 3.84766C8.93555 3.84766 4.08203-1.01562 4.08203-7.05078C4.08203-13.0957 8.92578-17.9492 14.9609-17.9492C21.0059-17.9492 25.8594-13.0957 25.8691-7.05078C25.8789-1.01562 21.0156 3.84766 14.9707 3.84766ZM10.0586-6.14258L14.0625-6.14258L14.0625-2.12891C14.0625-1.5918 14.4336-1.2207 14.9512-1.2207C15.4883-1.2207 15.8594-1.5918 15.8594-2.12891L15.8594-6.14258L19.8828-6.14258C20.4102-6.14258 20.791-6.51367 20.791-7.03125C20.791-7.56836 20.4199-7.94922 19.8828-7.94922L15.8594-7.94922L15.8594-11.9531C15.8594-12.5098 15.4883-12.8809 14.9512-12.8809C14.4336-12.8809 14.0625-12.5 14.0625-11.9531L14.0625-7.94922L10.0586-7.94922C9.50195-7.94922 9.13086-7.56836 9.13086-7.03125C9.13086-6.51367 9.51172-6.14258 10.0586-6.14258Z"/>
  </g>
  <text style="stroke:none;fill:black;font-family:-apple-system,&quot;SF Pro Display&quot;,&quot;SF Pro Text&quot;,Helvetica,sans-serif;font-weight:bold;" transform="matrix(1 0 0 1 263 1953)">Design Variations</text>
  <text style="stroke:none;fill:black;font-family:-apple-system,&quot;SF Pro Display&quot;,&quot;SF Pro Text&quot;,Helvetica,sans-serif;" transform="matrix(1 0 0 1 263 1971)">Symbols are supported in up to nine weights and three scales.</text>
  <text style="stroke:none;fill:black;font-family:-apple-system,&quot;SF Pro Display&quot;,&quot;SF Pro Text&quot;,Helvetica,sans-serif;" transform="matrix(1 0 0 1 263 1989)">For optimal layout with text and other symbols, vertically align</text>
  <text style="stroke:none;fill:black;font-family:-apple-system,&quot;SF Pro Display&quot;,&quot;SF Pro Text&quot;,Helvetica,sans-serif;" transform="matrix(1 0 0 1 263 2007)">symbols with the adjacent text.</text>
  <line id="" style="fill:none;stroke:#00AEEF;stroke-width:0.5;opacity:1.0;" x1="776" x2="776" y1="1919" y2="1933"/>
  <g id="" transform="matrix(1 0 0 1 776 1933)">
   <path d="M3.31055 0.126953C3.82812 0.126953 4.08203-0.0683594 4.26758-0.605469L5.52734-4.0625L11.2891-4.0625L12.5488-0.605469C12.7344-0.0683594 12.9883 0.126953 13.4961 0.126953C14.0137 0.126953 14.3457-0.185547 14.3457-0.673828C14.3457-0.839844 14.3164-0.986328 14.2383-1.20117L9.6582-13.3887C9.43359-13.9941 9.0332-14.2871 8.4082-14.2871C7.80273-14.2871 7.39258-13.9941 7.17773-13.3984L2.59766-1.19141C2.51953-0.976562 2.49023-0.830078 2.49023-0.664062C2.49023-0.175781 2.80273 0.126953 3.31055 0.126953ZM6.00586-5.53711L8.37891-12.1094L8.42773-12.1094L10.8008-5.53711Z"/>
  </g>
  <line id="" style="fill:none;stroke:#00AEEF;stroke-width:0.5;opacity:1.0;" x1="792.836" x2="792.836" y1="1919" y2="1933"/>
  <text style="stroke:none;fill:black;font-family:-apple-system,&quot;SF Pro Display&quot;,&quot;SF Pro Text&quot;,Helvetica,sans-serif;font-weight:bold;" transform="matrix(1 0 0 1 776 1953)">Margins</text>
  <text style="stroke:none;fill:black;font-family:-apple-system,&quot;SF Pro Display&quot;,&quot;SF Pro Text&quot;,Helvetica,sans-serif;" transform="matrix(1 0 0 1 776 1971)">Leading and trailing margins on the left and right side of each symbol</text>
  <text style="stroke:none;fill:black;font-family:-apple-system,&quot;SF Pro Display&quot;,&quot;SF Pro Text&quot;,Helvetica,sans-serif;" transform="matrix(1 0 0 1 776 1989)">can be adjusted by modifying the x-location of the margin guidelines.</text>
  <text style="stroke:none;fill:black;font-family:-apple-system,&quot;SF Pro Display&quot;,&quot;SF Pro Text&quot;,Helvetica,sans-serif;" transform="matrix(1 0 0 1 776 2007)">Modifications are automatically applied proportionally to all</text>
  <text style="stroke:none;fill:black;font-family:-apple-system,&quot;SF Pro Display&quot;,&quot;SF Pro Text&quot;,Helvetica,sans-serif;" transform="matrix(1 0 0 1 776 2025)">scales and weights.</text>
  <g id="" transform="matrix(1 0 0 1 1289 1933)">
   <path d="M2.8418 1.86523L4.54102 3.57422C5.40039 4.44336 6.38672 4.38477 7.31445 3.35938L17.4902-7.85156C17.7539-7.76367 18.0273-7.7832 18.3398-7.8418L19.4043-8.03711L20.0684-7.36328L20.0293-6.80664C19.9902-6.30859 20.1172-5.92773 20.6055-5.44922L21.3672-4.70703C21.8457-4.22852 22.4609-4.19922 22.9297-4.66797L25.8398-7.58789C26.3086-8.05664 26.2891-8.65234 25.8105-9.13086L25.0391-9.89258C24.5605-10.3711 24.1895-10.5273 23.7109-10.4883L23.1348-10.4395L22.4902-11.0742L22.7344-12.1973C22.8613-12.7637 22.7051-13.2031 22.1191-13.7891L19.9219-15.9766C16.582-19.2969 12.1484-19.2188 9.25781-16.3281C8.83789-15.918 8.80859-15.3418 9.04297-14.9512C9.27734-14.5898 9.73633-14.3555 10.3809-14.5215C11.8457-14.8633 13.3691-14.9219 14.7949-13.9844L14.209-12.5293C14.0137-12.0508 13.9844-11.6504 14.1113-11.2891L3.04688-0.898438C2.06055 0.0195312 1.98242 0.996094 2.8418 1.86523ZM10.752-15.957C13.1836-17.7344 16.4746-17.4316 18.7012-15.2051L21.1328-12.793C21.3672-12.5586 21.4062-12.373 21.3379-12.0312L21.0156-10.5469L22.5195-9.0625L23.5059-9.12109C23.7598-9.13086 23.8379-9.11133 24.0332-8.91602L24.6094-8.33984L22.168-5.89844L21.5918-6.47461C21.3965-6.66992 21.3672-6.74805 21.377-7.01172L21.4453-7.98828L19.9512-9.47266L18.4277-9.21875C18.1055-9.15039 17.959-9.17969 17.7148-9.41406L15.7129-11.416C15.459-11.6504 15.4297-11.8164 15.5859-12.1875L16.4648-14.2773C14.9023-15.7324 12.8711-16.3574 10.8398-15.7617C10.6836-15.7227 10.625-15.8496 10.752-15.957ZM5.27344 2.30469L4.10156 1.14258C3.63281 0.683594 3.74023 0.341797 4.14062-0.0195312L14.9512-10.1953L16.416-8.71094L6.42578 2.27539C6.07422 2.67578 5.74219 2.77344 5.27344 2.30469Z"/>
  </g>
  <text style="stroke:none;fill:black;font-family:-apple-system,&quot;SF Pro Display&quot;,&quot;SF Pro Text&quot;,Helvetica,sans-serif;font-weight:bold;" transform="matrix(1 0 0 1 1289 1953)">Exporting</text>
  <text style="stroke:none;fill:black;font-family:-apple-system,&quot;SF Pro Display&quot;,&quot;SF Pro Text&quot;,Helvetica,sans-serif;" transform="matrix(1 0 0 1 1289 1971)">Symbols should be outlined when exporting to ensure the</text>
  <text style="stroke:none;fill:black;font-family:-apple-system,&quot;SF Pro Display&quot;,&quot;SF Pro Text&quot;,Helvetica,sans-serif;" transform="matrix(1 0 0 1 1289 1989)">design is preserved when submitting to Xcode.</text>
  <text id="template-version" style="stroke:none;fill:black;font-family:-apple-system,&quot;SF Pro Display&quot;,&quot;SF Pro Text&quot;,Helvetica,sans-serif;text-anchor:end;" transform="matrix(1 0 0 1 3036 1933)">Template v.2.0</text>
  <text style="stroke:none;fill:black;font-family:-apple-system,&quot;SF Pro Display&quot;,&quot;SF Pro Text&quot;,Helvetica,sans-serif;text-anchor:end;" transform="matrix(1 0 0 1 3036 1951)">Requires Xcode 12 or greater</text>
  <text style="stroke:none;fill:black;font-family:-apple-system,&quot;SF Pro Display&quot;,&quot;SF Pro Text&quot;,Helvetica,sans-serif;text-anchor:end;" transform="matrix(1 0 0 1 3036 1969)">Generated from magnifyingglass.circle.fill</text>
  <text style="stroke:none;fill:black;font-family:-apple-system,&quot;SF Pro Display&quot;,&quot;SF Pro Text&quot;,Helvetica,sans-serif;text-anchor:end;" transform="matrix(1 0 0 1 3036 1987)">Typeset at 100 points</text>
  <text style="stroke:none;fill:black;font-family:-apple-system,&quot;SF Pro Display&quot;,&quot;SF Pro Text&quot;,Helvetica,sans-serif;" transform="matrix(1 0 0 1 263 726)">Small</text>
  <text style="stroke:none;fill:black;font-family:-apple-system,&quot;SF Pro Display&quot;,&quot;SF Pro Text&quot;,Helvetica,sans-serif;" transform="matrix(1 0 0 1 263 1156)">Medium</text>
  <text style="stroke:none;fill:black;font-family:-apple-system,&quot;SF Pro Display&quot;,&quot;SF Pro Text&quot;,Helvetica,sans-serif;" transform="matrix(1 0 0 1 263 1586)">Large</text>
 </g>
 <g id="Guides">
  <g id="H-reference" style="fill:#27AAE1;stroke:none;" transform="matrix(1 0 0 1 339 696)">
   <path d="M0.976562 0L3.66211 0L12.9883-24.4629L45.752-24.4629L55.127 0L57.7637 0L30.6152-70.459L28.125-70.459ZM29.3457-67.1387L29.4434-67.1387L44.873-26.709L13.8672-26.709Z"/>
  </g>
  <line id="Baseline-S" style="fill:none;stroke:#27AAE1;opacity:1;stroke-width:0.5;" x1="263" x2="3036" y1="696" y2="696"/>
  <line id="Capline-S" style="fill:none;stroke:#27AAE1;opacity:1;stroke-width:0.5;" x1="263" x2="3036" y1="625.541" y2="625.541"/>
  <g id="H-reference" style="fill:#27AAE1;stroke:none;" transform="matrix(1 0 0 1 339 1126)">
   <path d="M0.976562 0L3.66211 0L12.9883-24.4629L45.752-24.4629L55.127 0L57.7637 0L30.6152-70.459L28.125-70.459ZM29.3457-67.1387L29.4434-67.1387L44.873-26.709L13.8672-26.709Z"/>
  </g>
  <line id="Baseline-M" style="fill:none;stroke:#27AAE1;opacity:1;stroke-width:0.5;" x1="263" x2="3036" y1="1126" y2="1126"/>
  <line id="Capline-M" style="fill:none;stroke:#27AAE1;opacity:1;stroke-width:0.5;" x1="263" x2="3036" y1="1055.54" y2="1055.54"/>
  <g id="H-reference" style="fill:#27AAE1;stroke:none;" transform="matrix(1 0 0 1 339 1556)">
   <path d="M0.976562 0L3.66211 0L12.9883-24.4629L45.752-24.4629L55.127 0L57.7637 0L30.6152-70.459L28.125-70.459ZM29.3457-67.1387L29.4434-67.1387L44.873-26.709L13.8672-26.709Z"/>
  </g>
  <line id="Baseline-L" style="fill:none;stroke:#27AAE1;opacity:1;stroke-width:0.5;" x1="263" x2="3036" y1="1556" y2="1556"/>
  <line id="Capline-L" style="fill:none;stroke:#27AAE1;opacity:1;stroke-width:0.5;" x1="263" x2="3036" y1="1485.54" y2="1485.54"/>
  <line id="left-margin" style="fill:none;stroke:#00AEEF;stroke-width:0.5;opacity:1.0;" x1="1391.3" x2="1391.3" y1="1030.79" y2="1150.12"/>
  <line id="right-margin" style="fill:none;stroke:#00AEEF;stroke-width:0.5;opacity:1.0;" x1="1508.39" x2="1508.39" y1="1030.79" y2="1150.12"/>
 </g>
 <g id="Symbols">
  <g id="Black-L" transform="matrix(1 0 0 1 2854.05 1556)">
   <path d="M79.3457 32.8613C116.748 32.8613 147.412 2.19727 147.412-35.2051C147.412-72.6074 116.748-103.271 79.2969-103.271C41.8945-103.271 11.2793-72.6074 11.2793-35.2051C11.2793 2.19727 41.9434 32.8613 79.3457 32.8613ZM45.2148-41.4551C45.2148-56.8848 57.959-69.6289 73.3398-69.6289C88.7695-69.6289 101.416-56.8848 101.416-41.4551C101.416-36.7676 100.244-32.373 98.1934-28.4668L110.791-15.8691C112.598-14.1113 113.33-11.9141 113.33-9.66797C113.33-4.63867 109.619-0.878906 104.688-0.878906C102.295-0.878906 100.098-1.75781 98.291-3.56445L85.498-16.2598C81.8359-14.3555 77.6855-13.3301 73.3398-13.3301C57.959-13.3301 45.2148-26.0254 45.2148-41.4551ZM58.2031-41.4551C58.2031-33.0566 65.0391-26.3184 73.3398-26.3184C81.6895-26.3184 88.4277-33.0566 88.4277-41.4551C88.4277-49.8535 81.6895-56.5918 73.3398-56.5918C65.0391-56.5918 58.2031-49.8535 58.2031-41.4551Z"/>
  </g>
  <g id="Heavy-L" transform="matrix(1 0 0 1 2558.39 1556)">
   <path d="M78.2715 31.7871C115.088 31.7871 145.312 1.5625 145.312-35.2051C145.312-72.0215 115.039-102.246 78.2715-102.246C41.4551-102.246 11.2793-72.0215 11.2793-35.2051C11.2793 1.5625 41.5039 31.7871 78.2715 31.7871ZM44.2383-41.748C44.2383-56.9824 56.8359-69.5801 72.0215-69.5801C87.2559-69.5801 99.7559-57.0312 99.7559-41.748C99.7559-36.8164 98.3887-32.2266 96.0938-28.2227L109.863-14.502C111.426-12.8906 112.158-10.9375 112.158-8.93555C112.158-4.39453 108.838-1.02539 104.443-1.02539C102.246-1.02539 100.244-1.85547 98.584-3.51562L84.7656-17.2852C80.957-15.1855 76.6113-14.0137 72.0215-14.0137C56.8359-14.0137 44.2383-26.5137 44.2383-41.748ZM55.957-41.748C55.957-32.9102 63.2324-25.7324 72.0215-25.7324C80.8105-25.7324 88.0371-32.9102 88.0371-41.748C88.0371-50.6348 80.8105-57.8125 72.0215-57.8125C63.2324-57.8125 55.957-50.6348 55.957-41.748Z"/>
  </g>
  <g id="Bold-L" transform="matrix(1 0 0 1 2262.88 1556)">
   <path d="M77.0996 30.5664C113.232 30.5664 142.92 0.878906 142.92-35.2539C142.92-71.3379 113.184-101.074 77.0508-101.074C40.9668-101.074 11.2793-71.3379 11.2793-35.2539C11.2793 0.878906 41.0156 30.5664 77.0996 30.5664ZM43.1641-42.0898C43.1641-57.1289 55.5664-69.5312 70.5078-69.5312C85.5469-69.5312 97.8516-57.1777 97.8516-42.0898C97.8516-36.9141 96.3379-32.0801 93.75-27.9785L108.789-12.9395C110.156-11.5234 110.84-9.86328 110.84-8.05664C110.84-4.15039 108.008-1.2207 104.199-1.2207C102.148-1.2207 100.439-1.95312 98.9258-3.4668L83.9355-18.457C79.9805-16.1133 75.3906-14.7461 70.5078-14.7461C55.5664-14.7461 43.1641-27.0996 43.1641-42.0898ZM53.4668-42.0898C53.4668-32.7148 61.1816-25.0488 70.5566-25.0488C79.8828-25.0488 87.5488-32.7148 87.5488-42.0898C87.5488-51.5137 79.8828-59.1309 70.5566-59.1309C61.1816-59.1309 53.4668-51.5137 53.4668-42.0898Z"/>
  </g>
  <g id="Semibold-L" transform="matrix(1 0 0 1 1966.97 1556)">
   <path d="M76.2695 29.7363C111.914 29.7363 141.309 0.390625 141.309-35.2539C141.309-70.8984 111.865-100.244 76.2695-100.244C40.625-100.244 11.2793-70.8984 11.2793-35.2539C11.2793 0.390625 40.6738 29.7363 76.2695 29.7363ZM42.4316-42.334C42.4316-57.2266 54.6875-69.4824 69.4824-69.4824C84.375-69.4824 96.582-57.2754 96.582-42.334C96.582-36.9629 94.9219-31.9336 92.1387-27.7832L108.057-11.8164C109.277-10.5957 109.961-9.08203 109.961-7.4707C109.961-3.95508 107.471-1.31836 104.004-1.31836C102.1-1.31836 100.586-2.00195 99.1699-3.41797L83.3496-19.2383C79.3457-16.748 74.5605-15.2832 69.4824-15.2832C54.6875-15.2832 42.4316-27.4902 42.4316-42.334ZM51.7578-42.334C51.7578-32.6172 59.7656-24.6094 69.5312-24.6094C79.248-24.6094 87.207-32.6172 87.207-42.334C87.207-52.1484 79.248-60.1074 69.5312-60.1074C59.7656-60.1074 51.7578-52.0996 51.7578-42.334Z"/>
  </g>
  <g id="Medium-L" transform="matrix(1 0 0 1 1670.87 1556)">
   <path d="M75.6836 29.1504C110.938 29.1504 140.088 0 140.088-35.2539C140.088-70.5078 110.889-99.6582 75.6348-99.6582C40.3809-99.6582 11.2793-70.5078 11.2793-35.2539C11.2793 0 40.3809 29.1504 75.6836 29.1504ZM41.8457-42.4805C41.8457-57.2754 54.0039-69.4336 68.7012-69.4336C83.4961-69.4336 95.6055-57.3242 95.6055-42.4805C95.6055-36.9629 93.8477-31.8848 90.9668-27.6367L107.471-11.0352C108.594-9.86328 109.277-8.49609 109.277-7.03125C109.277-3.80859 107.031-1.41602 103.857-1.41602C102.051-1.41602 100.684-2.05078 99.3652-3.41797L82.9102-19.8242C78.8086-17.2363 73.9258-15.6738 68.7012-15.6738C54.0039-15.6738 41.8457-27.7832 41.8457-42.4805ZM50.4883-42.5293C50.4883-32.5195 58.7402-24.2676 68.75-24.2676C78.7598-24.2676 86.9629-32.5195 86.9629-42.5293C86.9629-52.5879 78.7598-60.791 68.75-60.791C58.7402-60.791 50.4883-52.5391 50.4883-42.5293Z"/>
  </g>
  <g id="Regular-L" transform="matrix(1 0 0 1 1374.97 1556)">
   <path d="M74.8535 28.3203C109.668 28.3203 138.477-0.488281 138.477-35.2539C138.477-70.0684 109.619-98.877 74.8047-98.877C40.0391-98.877 11.2793-70.0684 11.2793-35.2539C11.2793-0.488281 40.0879 28.3203 74.8535 28.3203ZM41.1133-42.7246C41.1133-57.373 53.125-69.3848 67.7246-69.3848C82.373-69.3848 94.2871-57.4219 94.2871-42.7246C94.2871-37.0117 92.4316-31.7383 89.3555-27.4414L106.738-9.96094C107.715-8.98438 108.35-7.76367 108.35-6.44531C108.35-3.61328 106.445-1.5625 103.662-1.5625C102.002-1.5625 100.83-2.09961 99.6094-3.36914L82.3242-20.6543C78.125-17.8711 73.0957-16.1621 67.7246-16.1621C53.125-16.1621 41.1133-28.125 41.1133-42.7246ZM48.7793-42.7734C48.7793-32.4219 57.3242-23.8281 67.7246-23.8281C78.125-23.8281 86.6211-32.4219 86.6211-42.7734C86.6211-53.1738 78.125-61.7188 67.7246-61.7188C57.3242-61.7188 48.7793-53.125 48.7793-42.7734Z"/>
  </g>
  <g id="Light-L" transform="matrix(1 0 0 1 1079.18 1556)">
   <path d="M73.9258 27.3926C108.301 27.3926 136.621-0.927734 136.621-35.2539C136.621-69.6289 108.252-97.9492 73.9258-97.9492C39.5508-97.9492 11.2793-69.6289 11.2793-35.2539C11.2793-0.927734 39.5996 27.3926 73.9258 27.3926ZM40.6738-42.7734C40.6738-57.0801 52.4414-68.8477 66.6992-68.8477C81.0059-68.8477 92.6758-57.1289 92.6758-42.7734C92.6758-36.8652 90.6738-31.4941 87.3535-27.1484L105.664-8.69141C106.494-7.86133 107.031-6.93359 107.031-5.81055C107.031-3.56445 105.566-1.9043 103.271-1.9043C101.904-1.9043 100.928-2.39258 99.9512-3.4668L81.7383-21.6797C77.4902-18.6523 72.3145-16.7969 66.6992-16.7969C52.4414-16.7969 40.6738-28.4668 40.6738-42.7734ZM46.6797-42.8223C46.6797-31.8359 55.7617-22.8027 66.748-22.8027C77.7344-22.8027 86.7188-31.8359 86.7188-42.8223C86.7188-53.8574 77.7344-62.8906 66.748-62.8906C55.7617-62.8906 46.6797-53.8086 46.6797-42.8223Z"/>
  </g>
  <g id="Thin-L" transform="matrix(1 0 0 1 783.693 1556)">
   <path d="M72.7051 26.1719C106.494 26.1719 134.18-1.51367 134.18-35.2539C134.18-69.043 106.494-96.7285 72.7051-96.7285C38.9648-96.7285 11.2793-69.043 11.2793-35.2539C11.2793-1.51367 38.9648 26.1719 72.7051 26.1719ZM40.1367-42.8223C40.1367-56.6895 51.4648-68.1152 65.332-68.1152C79.1992-68.1152 90.5762-56.6895 90.5762-42.8223C90.5762-36.6699 88.3789-31.1035 84.668-26.7578L104.199-7.08008C104.834-6.39648 105.273-5.85938 105.273-4.93164C105.273-3.51562 104.346-2.39258 102.686-2.39258C101.709-2.39258 101.074-2.7832 100.342-3.56445L80.957-23.0957C76.6602-19.7266 71.2402-17.6758 65.332-17.6758C51.4648-17.6758 40.1367-28.9551 40.1367-42.8223ZM43.9453-42.8711C43.9453-31.1035 53.6621-21.4844 65.4297-21.4844C77.2461-21.4844 86.8164-31.1035 86.8164-42.8711C86.8164-54.7363 77.2461-64.4043 65.4297-64.4043C53.6621-64.4043 43.9453-54.7363 43.9453-42.8711Z"/>
  </g>
  <g id="Ultralight-L" transform="matrix(1 0 0 1 487.616 1556)">
   <path d="M72.1191 25.5371C105.566 25.5371 132.91-1.80664 132.91-35.2539C132.91-68.75 105.566-96.0938 72.1191-96.0938C38.623-96.0938 11.2793-68.75 11.2793-35.2539C11.2793-1.80664 38.623 25.5371 72.1191 25.5371ZM39.8438-42.8223C39.8438-56.4941 51.0254-67.7246 64.6484-67.7246C78.3203-67.7246 89.502-56.4941 89.502-42.8223C89.502-36.5723 87.1582-30.9082 83.3008-26.5625L103.467-6.25C104.004-5.61523 104.346-5.32227 104.346-4.49219C104.346-3.51562 103.711-2.63672 102.393-2.63672C101.611-2.63672 101.123-2.92969 100.586-3.61328L80.5664-23.7793C76.2207-20.2637 70.7031-18.1152 64.6484-18.1152C51.0254-18.1152 39.8438-29.1992 39.8438-42.8223ZM42.5293-42.9199C42.5293-30.7617 52.5879-20.8008 64.7461-20.8008C77.002-20.8008 86.9141-30.7617 86.9141-42.9199C86.9141-55.1758 77.002-65.1367 64.7461-65.1367C52.5879-65.1367 42.5293-55.1758 42.5293-42.9199Z"/>
  </g>
  <g id="Black-M" transform="matrix(1 0 0 1 2870.97 1126)">
   <path d="M62.4023 18.457C91.9922 18.457 116.113-5.61523 116.113-35.2051C116.113-64.7949 91.9922-88.8672 62.4023-88.8672C32.8125-88.8672 8.74023-64.7949 8.74023-35.2051C8.74023-5.61523 32.8125 18.457 62.4023 18.457ZM36.1328-39.6484C36.1328-51.709 46.0938-61.6699 58.1055-61.6699C70.1172-61.6699 80.0293-51.709 80.0293-39.6484C80.0293-36.2305 79.248-33.1055 77.832-30.1758L86.5723-21.4844C88.1348-19.873 88.7207-18.0664 88.7207-16.1133C88.7207-11.8652 85.4492-8.59375 81.25-8.59375C79.2969-8.59375 77.3926-9.32617 75.9277-10.791L66.9434-19.6777C64.2578-18.3594 61.2305-17.7246 58.1055-17.7246C46.0938-17.7246 36.1328-27.6367 36.1328-39.6484ZM46.9727-39.6484C46.9727-33.4473 52.002-28.5645 58.1055-28.5645C64.209-28.5645 69.1895-33.4473 69.1895-39.6484C69.1895-45.8496 64.209-50.7812 58.1055-50.7812C52.002-50.7812 46.9727-45.8496 46.9727-39.6484Z"/>
  </g>
  <g id="Heavy-M" transform="matrix(1 0 0 1 2575.19 1126)">
   <path d="M61.5234 17.5293C90.5273 17.5293 114.258-6.20117 114.258-35.2051C114.258-64.2578 90.5273-87.9883 61.4746-87.9883C32.4707-87.9883 8.74023-64.2578 8.74023-35.2051C8.74023-6.20117 32.4707 17.5293 61.5234 17.5293ZM35.2051-39.9902C35.2051-51.9043 45.0195-61.7676 56.8848-61.7676C68.7988-61.7676 78.6133-51.9043 78.6133-39.9902C78.6133-36.377 77.6855-33.0078 76.0742-29.9805L85.8398-20.2637C87.207-18.8477 87.793-17.1875 87.793-15.4297C87.793-11.5723 84.8633-8.64258 81.1035-8.64258C79.248-8.64258 77.5879-9.375 76.1719-10.6934L66.3086-20.5566C63.4766-19.0918 60.2539-18.2617 56.8848-18.2617C45.0195-18.2617 35.2051-28.0762 35.2051-39.9902ZM45.1172-39.9902C45.1172-33.4473 50.4395-28.1738 56.8848-28.1738C63.4277-28.1738 68.7012-33.4473 68.7012-39.9902C68.7012-46.5332 63.4277-51.8066 56.8848-51.8066C50.4395-51.8066 45.1172-46.5332 45.1172-39.9902Z"/>
  </g>
  <g id="Bold-M" transform="matrix(1 0 0 1 2279.5 1126)">
   <path d="M60.498 16.5039C88.8672 16.5039 112.207-6.83594 112.207-35.2051C112.207-63.623 88.8672-86.9629 60.4492-86.9629C32.0312-86.9629 8.74023-63.623 8.74023-35.2051C8.74023-6.83594 32.0801 16.5039 60.498 16.5039ZM34.1309-40.332C34.1309-52.0996 43.8477-61.8652 55.5664-61.8652C67.334-61.8652 77.002-52.1484 77.002-40.332C77.002-36.4746 75.9277-32.9102 74.1211-29.7852L84.9609-18.8965C86.1816-17.6758 86.7188-16.2598 86.7188-14.6973C86.7188-11.2793 84.2285-8.74023 80.9082-8.74023C79.1992-8.74023 77.7344-9.375 76.4648-10.6445L65.5273-21.4844C62.5977-19.873 59.1797-18.8965 55.5664-18.8965C43.8477-18.8965 34.1309-28.5645 34.1309-40.332ZM42.9688-40.332C42.9688-33.3984 48.6816-27.7832 55.5664-27.7832C62.5-27.7832 68.1152-33.3984 68.1152-40.332C68.1152-47.3145 62.5-52.9297 55.5664-52.9297C48.6816-52.9297 42.9688-47.3145 42.9688-40.332Z"/>
  </g>
  <g id="Semibold-M" transform="matrix(1 0 0 1 1983.5 1126)">
   <path d="M59.7656 15.8203C87.7441 15.8203 110.791-7.27539 110.791-35.2539C110.791-63.2324 87.6953-86.2793 59.7656-86.2793C31.7871-86.2793 8.74023-63.2324 8.74023-35.2539C8.74023-7.27539 31.7871 15.8203 59.7656 15.8203ZM33.3984-40.5762C33.3984-52.2949 43.0176-61.9141 54.6387-61.9141C66.3574-61.9141 75.9277-52.2949 75.9277-40.5762C75.9277-36.5723 74.7559-32.8125 72.7539-29.6387L84.375-17.9688C85.4492-16.8945 85.9863-15.5762 85.9863-14.209C85.9863-11.084 83.7891-8.78906 80.8105-8.78906C79.1992-8.78906 77.8809-9.375 76.6602-10.5957L65.0391-22.168C62.0117-20.3613 58.4473-19.3359 54.6387-19.3359C43.0176-19.3359 33.3984-28.9062 33.3984-40.5762ZM41.5527-40.5762C41.5527-33.3984 47.4609-27.4902 54.6875-27.4902C61.8652-27.4902 67.7734-33.3984 67.7734-40.5762C67.7734-47.8516 61.8652-53.7109 54.6875-53.7109C47.4609-53.7109 41.5527-47.8027 41.5527-40.5762Z"/>
  </g>
  <g id="Medium-M" transform="matrix(1 0 0 1 1687.3 1126)">
   <path d="M59.2285 15.2344C86.9141 15.2344 109.766-7.61719 109.766-35.2539C109.766-62.8906 86.8652-85.7422 59.1797-85.7422C31.543-85.7422 8.74023-62.8906 8.74023-35.2539C8.74023-7.61719 31.5918 15.2344 59.2285 15.2344ZM32.8613-40.7715C32.8613-52.3926 42.3828-61.9629 53.9551-61.9629C65.5762-61.9629 75.0977-52.4414 75.0977-40.7715C75.0977-36.6211 73.8281-32.7637 71.7285-29.4922L83.9355-17.2852C84.9121-16.3086 85.4492-15.0879 85.4492-13.8184C85.4492-10.9375 83.4961-8.83789 80.7129-8.83789C79.1504-8.83789 77.9297-9.375 76.8066-10.5469L64.6484-22.6562C61.5234-20.8008 57.8613-19.6777 53.9551-19.6777C42.3828-19.6777 32.8613-29.1992 32.8613-40.7715ZM40.4297-40.7715C40.4297-33.3984 46.5332-27.2461 53.9551-27.2461C61.377-27.2461 67.4805-33.3984 67.4805-40.7715C67.4805-48.2422 61.377-54.3457 53.9551-54.3457C46.5332-54.3457 40.4297-48.1934 40.4297-40.7715Z"/>
  </g>
  <g id="Regular-M" transform="matrix(1 0 0 1 1391.3 1126)">
   <path d="M58.5449 14.5508C85.791 14.5508 108.35-8.05664 108.35-35.2539C108.35-62.5 85.7422-85.0586 58.4961-85.0586C31.2988-85.0586 8.74023-62.5 8.74023-35.2539C8.74023-8.05664 31.3477 14.5508 58.5449 14.5508ZM32.1289-41.0156C32.1289-52.5391 41.5527-62.0117 53.0762-62.0117C64.5996-62.0117 74.0234-52.5879 74.0234-41.0156C74.0234-36.7188 72.6562-32.666 70.4102-29.3945L83.3496-16.3574C84.1797-15.4785 84.7168-14.4043 84.7168-13.2812C84.7168-10.7422 83.0566-8.93555 80.6152-8.93555C79.1504-8.93555 78.0762-9.42383 77.0508-10.498L64.1602-23.3398C60.9375-21.3379 57.1289-20.0684 53.0762-20.0684C41.5527-20.0684 32.1289-29.541 32.1289-41.0156ZM39.0137-41.0156C39.0137-33.3496 45.3613-26.9531 53.0762-26.9531C60.7422-26.9531 67.0898-33.3496 67.0898-41.0156C67.0898-48.7793 60.7422-55.127 53.0762-55.127C45.3613-55.127 39.0137-48.7305 39.0137-41.0156Z"/>
  </g>
  <g id="Light-M" transform="matrix(1 0 0 1 1095.42 1126)">
   <path d="M57.7148 13.7207C84.5215 13.7207 106.689-8.44727 106.689-35.2539C106.689-62.1094 84.5215-84.2285 57.666-84.2285C30.8594-84.2285 8.74023-62.1094 8.74023-35.2539C8.74023-8.44727 30.9082 13.7207 57.7148 13.7207ZM31.7383-41.0645C31.7383-52.2949 40.9668-61.5234 52.1484-61.5234C63.3789-61.5234 72.5586-52.3438 72.5586-41.0645C72.5586-36.5723 71.0938-32.4219 68.6035-29.1016L82.373-15.2344C83.0566-14.502 83.5449-13.6719 83.5449-12.6953C83.5449-10.6934 82.2266-9.22852 80.2246-9.22852C79.0039-9.22852 78.1738-9.66797 77.2949-10.5957L63.623-24.2676C60.3516-22.0215 56.3965-20.6543 52.1484-20.6543C40.9668-20.6543 31.7383-29.834 31.7383-41.0645ZM37.1094-41.0645C37.1094-32.8613 43.9453-26.0742 52.1973-26.0742C60.4492-26.0742 67.1875-32.8613 67.1875-41.0645C67.1875-49.3652 60.4492-56.1523 52.1973-56.1523C43.9453-56.1523 37.1094-49.3164 37.1094-41.0645Z"/>
  </g>
  <g id="Thin-M" transform="matrix(1 0 0 1 799.806 1126)">
   <path d="M56.6406 12.5977C82.9102 12.5977 104.492-8.98438 104.492-35.2539C104.492-61.5723 82.9102-83.1543 56.5918-83.1543C30.3223-83.1543 8.74023-61.5723 8.74023-35.2539C8.74023-8.98438 30.3223 12.5977 56.6406 12.5977ZM31.25-41.1133C31.25-51.9531 40.0879-60.8887 50.9277-60.8887C61.7676-60.8887 70.6543-51.9531 70.6543-41.1133C70.6543-36.4258 68.9941-32.1289 66.2109-28.7598L81.1035-13.7695C81.5918-13.1836 81.9824-12.6953 81.9824-11.9141C81.9824-10.6445 81.1035-9.66797 79.7363-9.66797C78.8574-9.66797 78.3203-10.0098 77.6855-10.6445L62.9395-25.4883C59.5703-22.998 55.4199-21.4355 50.9277-21.4355C40.0879-21.4355 31.25-30.2734 31.25-41.1133ZM34.668-41.1621C34.668-32.2266 42.041-24.8535 50.9766-24.8535C60.0098-24.8535 67.2852-32.2266 67.2852-41.1621C67.2852-50.1465 60.0098-57.4707 50.9766-57.4707C42.041-57.4707 34.668-50.1465 34.668-41.1621Z"/>
  </g>
  <g id="Ultralight-M" transform="matrix(1 0 0 1 503.656 1126)">
   <path d="M56.0547 12.0605C82.0801 12.0605 103.369-9.22852 103.369-35.2539C103.369-61.2793 82.0801-82.5684 56.0547-82.5684C30.0293-82.5684 8.74023-61.2793 8.74023-35.2539C8.74023-9.22852 30.0293 12.0605 56.0547 12.0605ZM30.957-41.1133C30.957-51.7578 39.6973-60.5469 50.3418-60.5469C60.9863-60.5469 69.6777-51.7578 69.6777-41.1133C69.6777-36.3281 67.9199-31.9336 64.9902-28.5645L80.4199-12.9883C80.8594-12.5 81.1523-12.207 81.1523-11.5234C81.1523-10.6445 80.5664-9.91211 79.4434-9.91211C78.8086-9.91211 78.3691-10.1562 77.8809-10.6934L62.5488-26.1719C59.1797-23.4375 54.9316-21.8262 50.3418-21.8262C39.6973-21.8262 30.957-30.4688 30.957-41.1133ZM33.3984-41.1621C33.3984-31.8848 41.0645-24.2188 50.3906-24.2188C59.7656-24.2188 67.334-31.8848 67.334-41.1621C67.334-50.5859 59.7656-58.2031 50.3906-58.2031C41.0645-58.2031 33.3984-50.5859 33.3984-41.1621Z"/>
  </g>
  <g id="Black-S" transform="matrix(1 0 0 1 2884.57 696)">
   <path d="M48.8281 6.78711C71.9727 6.78711 90.8203-12.0605 90.8203-35.2051C90.8203-58.3496 71.9727-77.1973 48.8281-77.1973C25.6836-77.1973 6.83594-58.3496 6.83594-35.2051C6.83594-12.0605 25.6836 6.78711 48.8281 6.78711ZM28.2227-38.7207C28.2227-48.1445 36.0352-55.957 45.4102-55.957C54.834-55.957 62.5977-48.1445 62.5977-38.7207C62.5977-36.0352 61.9629-33.5449 60.8398-31.25L67.7734-24.3652C68.9941-23.1445 69.4336-21.7285 69.4336-20.2148C69.4336-16.8945 66.8945-14.3555 63.623-14.3555C62.1094-14.3555 60.6445-14.9414 59.4727-16.0645L52.3926-23.0957C50.293-22.0703 47.9004-21.5332 45.4102-21.5332C36.0352-21.5332 28.2227-29.2969 28.2227-38.7207ZM36.6699-38.7207C36.6699-33.8379 40.625-29.9805 45.4102-29.9805C50.2441-29.9805 54.1504-33.8379 54.1504-38.7207C54.1504-43.6035 50.2441-47.4609 45.4102-47.4609C40.625-47.4609 36.6699-43.6035 36.6699-38.7207Z"/>
  </g>
  <g id="Heavy-S" transform="matrix(1 0 0 1 2588.47 696)">
   <path d="M48.2422 6.15234C70.9961 6.15234 89.5996-12.4512 89.5996-35.2051C89.5996-57.959 70.9961-76.6113 48.1934-76.6113C25.4395-76.6113 6.83594-57.959 6.83594-35.2051C6.83594-12.4512 25.4395 6.15234 48.2422 6.15234ZM27.5391-38.9648C27.5391-48.3398 35.3027-56.0547 44.6289-56.0547C53.9551-56.0547 61.6699-48.3398 61.6699-38.9648C61.6699-36.1328 60.9375-33.4961 59.7168-31.1523L67.2852-23.584C68.4082-22.4609 68.8477-21.1426 68.8477-19.7754C68.8477-16.6992 66.5527-14.3555 63.5742-14.3555C62.1094-14.3555 60.7422-14.9414 59.668-16.0156L51.9531-23.6328C49.7559-22.5098 47.2168-21.9238 44.6289-21.9238C35.3027-21.9238 27.5391-29.5898 27.5391-38.9648ZM35.4492-38.9648C35.4492-33.8867 39.5996-29.7852 44.6289-29.7852C49.6582-29.7852 53.7598-33.8867 53.7598-38.9648C53.7598-44.043 49.6582-48.1445 44.6289-48.1445C39.5996-48.1445 35.4492-44.043 35.4492-38.9648Z"/>
  </g>
  <g id="Bold-S" transform="matrix(1 0 0 1 2292.44 696)">
   <path d="M47.5586 5.46875C69.873 5.46875 88.2324-12.8906 88.2324-35.2539C88.2324-57.5684 69.873-75.9277 47.5098-75.9277C25.1953-75.9277 6.83594-57.5684 6.83594-35.2539C6.83594-12.8906 25.1953 5.46875 47.5586 5.46875ZM26.7578-39.2578C26.7578-48.5352 34.4727-56.2012 43.7012-56.2012C53.0273-56.2012 60.6445-48.584 60.6445-39.2578C60.6445-36.2305 59.8145-33.4473 58.4473-31.0059L66.748-22.6562C67.7246-21.6797 68.2129-20.5078 68.2129-19.2871C68.2129-16.4551 66.1621-14.4043 63.4766-14.4043C62.0605-14.4043 60.8887-14.8926 59.8145-15.9668L51.4648-24.2676C49.1699-23.0469 46.4844-22.3145 43.7012-22.3145C34.4727-22.3145 26.7578-29.9805 26.7578-39.2578ZM34.082-39.2578C34.082-33.9355 38.4277-29.5898 43.7012-29.5898C48.9746-29.5898 53.3203-33.9355 53.3203-39.2578C53.3203-44.5801 48.9746-48.877 43.7012-48.877C38.4277-48.877 34.082-44.5312 34.082-39.2578Z"/>
  </g>
  <g id="Semibold-S" transform="matrix(1 0 0 1 1996.2 696)">
   <path d="M47.0703 4.98047C69.0918 4.98047 87.3047-13.1836 87.3047-35.2539C87.3047-57.2754 69.0918-75.4883 47.0215-75.4883C25-75.4883 6.83594-57.2754 6.83594-35.2539C6.83594-13.1836 25.0488 4.98047 47.0703 4.98047ZM26.2695-39.4043C26.2695-48.6816 33.8867-56.2988 43.0664-56.2988C52.3438-56.2988 59.9121-48.7305 59.9121-39.4043C59.9121-36.3281 59.0332-33.3984 57.5684-30.9082L66.4062-22.0703C67.2852-21.1914 67.7246-20.0684 67.7246-18.9453C67.7246-16.3086 65.918-14.4043 63.4277-14.4043C62.0605-14.4043 60.9375-14.8926 59.9609-15.918L51.123-24.707C48.7305-23.3887 45.9961-22.6074 43.0664-22.6074C33.8867-22.6074 26.2695-30.1758 26.2695-39.4043ZM33.1055-39.4043C33.1055-33.9355 37.5977-29.4434 43.0664-29.4434C48.5352-29.4434 53.0273-33.9355 53.0273-39.4043C53.0273-44.9219 48.5352-49.4141 43.0664-49.4141C37.5977-49.4141 33.1055-44.9219 33.1055-39.4043Z"/>
  </g>
  <g id="Medium-S" transform="matrix(1 0 0 1 1699.83 696)">
   <path d="M46.7285 4.63867C68.5547 4.63867 86.6211-13.4277 86.6211-35.2539C86.6211-57.0801 68.5059-75.1465 46.6797-75.1465C24.8535-75.1465 6.83594-57.0801 6.83594-35.2539C6.83594-13.4277 24.9023 4.63867 46.7285 4.63867ZM25.8301-39.5508C25.8301-48.7793 33.4473-56.3965 42.627-56.3965C51.8555-56.3965 59.375-48.8281 59.375-39.5508C59.375-36.377 58.4473-33.3984 56.8848-30.8594L66.1133-21.582C66.9434-20.752 67.3828-19.7266 67.3828-18.6523C67.3828-16.2109 65.7227-14.4531 63.3789-14.4531C62.0605-14.4531 61.0352-14.8926 60.0586-15.8691L50.8301-25C48.4375-23.6328 45.6055-22.8027 42.627-22.8027C33.4473-22.8027 25.8301-30.3711 25.8301-39.5508ZM32.373-39.5508C32.373-33.9844 37.0117-29.3457 42.627-29.3457C48.1934-29.3457 52.7832-33.9844 52.7832-39.5508C52.7832-45.2148 48.1934-49.8047 42.627-49.8047C37.0117-49.8047 32.373-45.166 32.373-39.5508Z"/>
  </g>
  <g id="Regular-S" transform="matrix(1 0 0 1 1403.58 696)">
   <path d="M46.2402 4.15039C67.7734 4.15039 85.6934-13.7207 85.6934-35.2539C85.6934-56.7871 67.7246-74.6582 46.1914-74.6582C24.707-74.6582 6.83594-56.7871 6.83594-35.2539C6.83594-13.7207 24.7559 4.15039 46.2402 4.15039ZM25.3418-39.7461C25.3418-48.9258 32.8613-56.4453 41.9922-56.4453C51.1719-56.4453 58.6426-48.9746 58.6426-39.7461C58.6426-36.4746 57.666-33.3496 56.0059-30.7617L65.7715-20.9473C66.4551-20.2637 66.9434-19.2871 66.9434-18.3105C66.9434-16.0645 65.4297-14.4531 63.3301-14.4531C62.0605-14.4531 61.084-14.8926 60.2051-15.8203L50.4883-25.4395C47.998-23.9746 45.1172-23.0957 41.9922-23.0957C32.8613-23.0957 25.3418-30.6152 25.3418-39.7461ZM31.4453-39.7461C31.4453-33.9844 36.1816-29.1992 41.9922-29.1992C47.7539-29.1992 52.4902-33.9844 52.4902-39.7461C52.4902-45.5566 47.7539-50.293 41.9922-50.293C36.1816-50.293 31.4453-45.5078 31.4453-39.7461Z"/>
  </g>
  <g id="Light-S" transform="matrix(1 0 0 1 1107.6 696)">
   <path d="M45.5078 3.41797C66.6992 3.41797 84.2285-14.0625 84.2285-35.2539C84.2285-56.4453 66.6504-73.9258 45.5078-73.9258C24.3164-73.9258 6.83594-56.4453 6.83594-35.2539C6.83594-14.0625 24.3652 3.41797 45.5078 3.41797ZM25-39.7949C25-48.6816 32.3242-56.0059 41.2109-56.0059C50.0977-56.0059 57.373-48.7305 57.373-39.7949C57.373-36.3281 56.25-33.1543 54.4434-30.5176L64.8926-19.9707C65.4785-19.3848 65.918-18.6035 65.918-17.8223C65.918-16.0156 64.6973-14.7461 62.9883-14.7461C61.9629-14.7461 61.1816-15.0879 60.4492-15.8691L50.0488-26.2695C47.5098-24.6094 44.4336-23.584 41.2109-23.584C32.3242-23.584 25-30.9082 25-39.7949ZM29.7852-39.7949C29.7852-33.5449 34.9609-28.418 41.2109-28.418C47.4609-28.418 52.5879-33.5449 52.5879-39.7949C52.5879-46.0938 47.4609-51.2207 41.2109-51.2207C34.9609-51.2207 29.7852-46.0449 29.7852-39.7949Z"/>
  </g>
  <g id="Thin-S" transform="matrix(1 0 0 1 811.867 696)">
   <path d="M44.5801 2.49023C65.2832 2.49023 82.2754-14.5508 82.2754-35.2539C82.2754-55.957 65.2344-72.998 44.5312-72.998C23.8281-72.998 6.83594-55.957 6.83594-35.2539C6.83594-14.5508 23.877 2.49023 44.5801 2.49023ZM24.5605-39.7949C24.5605-48.3887 31.5918-55.4688 40.1367-55.4688C48.6816-55.4688 55.7129-48.3887 55.7129-39.7949C55.7129-36.1816 54.4434-32.8613 52.2949-30.2246L63.7695-18.7012C64.209-18.2129 64.502-17.7734 64.502-17.1387C64.502-16.0156 63.7695-15.1367 62.5488-15.1367C61.8164-15.1367 61.2793-15.3809 60.791-15.9668L49.4141-27.3926C46.8262-25.4395 43.6035-24.2676 40.1367-24.2676C31.5918-24.2676 24.5605-31.25 24.5605-39.7949ZM27.5879-39.8438C27.5879-33.0078 33.3008-27.3438 40.1855-27.3438C47.0703-27.3438 52.6855-33.0078 52.6855-39.8438C52.6855-46.7773 47.0703-52.3926 40.1855-52.3926C33.3008-52.3926 27.5879-46.7773 27.5879-39.8438Z"/>
  </g>
  <g id="Ultralight-S" transform="matrix(1 0 0 1 515.644 696)">
   <path d="M44.043 1.95312C64.502 1.95312 81.2988-14.7949 81.2988-35.2539C81.2988-55.7129 64.502-72.4609 44.043-72.4609C23.584-72.4609 6.83594-55.7129 6.83594-35.2539C6.83594-14.7949 23.584 1.95312 44.043 1.95312ZM24.3164-39.8438C24.3164-48.2422 31.2012-55.127 39.5996-55.127C47.9492-55.127 54.834-48.2422 54.834-39.8438C54.834-36.084 53.4668-32.7148 51.2207-30.0781L63.1836-18.0176C63.5254-17.627 63.7695-17.334 63.7695-16.7969C63.7695-15.9668 63.2324-15.332 62.3047-15.332C61.7188-15.332 61.377-15.5273 60.9375-16.0156L49.0723-27.9297C46.4844-25.8789 43.1641-24.6094 39.5996-24.6094C31.2012-24.6094 24.3164-31.4453 24.3164-39.8438ZM26.4648-39.8926C26.4648-32.666 32.4219-26.8066 39.6484-26.8066C46.875-26.8066 52.7344-32.666 52.7344-39.8926C52.7344-47.1191 46.875-53.0273 39.6484-53.0273C32.4219-53.0273 26.4648-47.1191 26.4648-39.8926Z"/>
  </g>
 </g>
</svg>
